<svg width="912" height="120" viewBox="0 0 912 120" fill="none" xmlns="http://www.w3.org/2000/svg">
<path fill-rule="evenodd" clip-rule="evenodd" d="M8.51029 80.54C7.28029 81.54 7.29029 83.41 8.52029 84.4L48.0303 116C49.6503 117.3 52.0503 116.14 52.0503 114.07V50.37C52.0503 48.28 49.6303 47.13 48.0103 48.45L8.51029 80.54Z" fill="url(#paint0_linear_31_150)"/>
<path d="M12.8902 68.08L6.98025 63.35C5.75025 62.36 5.74025 60.49 6.97025 59.49L48.0102 26.15C49.6302 24.83 52.0502 25.99 52.0502 28.07V37.59C52.0502 38.34 51.7102 39.04 51.1402 39.51L16.0002 68.06C15.1002 68.8 13.8002 68.8 12.8902 68.07V68.08Z" fill="url(#paint1_linear_31_150)"/>
<path d="M4.93 41.89L11.36 47.03C12.27 47.76 13.56 47.75 14.47 47.02L51.13 17.23C51.71 16.76 52.05 16.05 52.05 15.31V5.47995C52.05 3.39995 49.65 2.24995 48.03 3.54995L4.93 38.02C3.69 39.01 3.69 40.9 4.93 41.89Z" fill="url(#paint2_linear_31_150)"/>
<path d="M61.23 114.99L114.7 61.52C115.67 60.55 115.67 58.98 114.7 58.02L61.23 4.56001C59.67 3.00001 57 4.10001 57 6.31001V113.24C57 115.45 59.67 116.55 61.23 114.99Z" fill="url(#paint3_linear_31_150)"/>
<path d="M870.228 92V29H879.588V50.6C879.588 51.77 879.588 53.03 879.408 54.38C881.838 50.24 886.428 46.91 893.088 46.91C903.168 46.91 909.108 53.66 909.108 64.64V92H899.748V65.9C899.748 58.61 896.778 54.29 890.478 54.29C883.818 54.29 879.588 59.69 879.588 66.17V92H870.228Z" fill="#ED8C50"/>
<path d="M839.061 93.44C826.191 93.44 817.191 85.07 817.191 70.13C817.191 55.91 826.911 46.91 839.511 46.91C851.031 46.91 858.321 53.84 859.311 63.92H849.771C849.231 58.61 845.721 54.29 839.421 54.29C832.131 54.29 826.731 60.59 826.731 70.13C826.731 79.67 831.861 86.15 839.421 86.15C845.901 86.15 849.591 82.01 850.311 76.34H859.671C858.501 86.6 851.481 93.44 839.061 93.44Z" fill="#ED8C50"/>
<path d="M767.952 92V48.35H777.312V50.78C777.312 51.95 777.222 53.03 777.132 54.38C779.472 50.33 784.152 46.91 790.812 46.91C800.892 46.91 806.742 53.66 806.742 64.64V92H797.382V65.9C797.382 58.61 794.502 54.29 788.292 54.29C781.542 54.29 777.312 59.69 777.312 66.17V92H767.952Z" fill="#ED8C50"/>
<path d="M736.968 93.44C723.918 93.44 715.278 85.16 715.278 70.04C715.278 56.45 724.278 46.91 736.608 46.91C749.748 46.91 757.218 56.09 757.218 70.22V72.2H724.728C724.908 80.66 729.948 86.15 737.058 86.15C742.098 86.15 746.508 83.72 747.408 78.14H756.858C755.958 86.42 749.118 93.44 736.968 93.44ZM724.818 65.54H747.408C747.408 58.7 743.268 54.02 736.518 54.02C729.948 54.02 725.448 58.97 724.818 65.54Z" fill="#ED8C50"/>
<path d="M661.381 92V29H685.321C697.291 29 706.021 33.68 706.021 44.84C706.021 52.22 700.711 56.9 694.681 58.7C702.421 60.77 707.731 65.99 707.731 74.18C707.731 87.86 696.031 92 683.521 92H661.381ZM671.281 83.54H684.421C693.421 83.54 697.471 80.03 697.471 73.37C697.471 66.98 693.871 63.29 684.241 63.29H671.281V83.54ZM671.281 54.92H683.971C691.891 54.92 695.761 51.59 695.761 45.92C695.761 40.79 692.521 37.37 684.331 37.37H671.281V54.92Z" fill="#ED8C50"/>
<path d="M628.01 111.98C615.77 111.98 608.389 105.32 608.389 95.6H617.75C617.93 101.09 621.71 104.69 628.19 104.69C635.12 104.69 639.98 100.82 639.98 92.9V87.86C639.98 86.42 640.07 85.07 640.25 83.72C637.82 87.86 632.869 90.92 626.299 90.92C614.509 90.92 606.5 82.55 606.5 68.87C606.5 55.37 615.59 46.91 626.12 46.91C633.59 46.91 637.82 50.33 640.25 54.38C640.07 53.12 639.98 51.86 639.98 50.51V48.35H649.34V90.2C649.34 104.87 641.42 111.98 628.01 111.98ZM616.13 68.87C616.13 77.69 621.17 83.54 628.46 83.54C635.57 83.54 640.609 77.69 640.609 68.87C640.609 60.5 635.57 54.29 628.46 54.29C621.17 54.29 616.13 60.41 616.13 68.87Z" fill="#ED8C50"/>
<path d="M557.89 92V48.35H567.25V50.78C567.25 51.95 567.16 53.03 567.07 54.38C569.41 50.33 574.09 46.91 580.75 46.91C590.83 46.91 596.68 53.66 596.68 64.64V92H587.32V65.9C587.32 58.61 584.44 54.29 578.23 54.29C571.48 54.29 567.25 59.69 567.25 66.17V92H557.89Z" fill="#ED8C50"/>
<path d="M519.647 92V84.44H529.727V55.91H521.447V48.35H539.087V84.44H547.817V92H519.647ZM528.647 41.15V30.26H539.357V41.15H528.647Z" fill="#ED8C50"/>
<path d="M485.198 93.44C473.768 93.44 465.218 85.34 465.218 70.22C465.218 55.82 474.128 46.91 485.378 46.91C492.398 46.91 496.898 50.6 499.148 54.38C498.968 53.03 498.968 51.77 498.968 50.51V29H508.328V92H498.968V89.84C498.968 88.4 498.968 87.23 499.148 85.97C497.168 89.57 492.488 93.44 485.198 93.44ZM474.758 70.22C474.758 79.85 479.978 86.15 487.178 86.15C494.378 86.15 499.598 79.76 499.598 70.13C499.598 60.5 494.378 54.29 487.178 54.29C479.978 54.29 474.758 60.77 474.758 70.22Z" fill="#ED8C50"/>
<path d="M436.235 93.44C423.365 93.44 414.275 84.44 414.275 70.22C414.275 56.27 423.365 46.91 436.235 46.91C449.105 46.91 458.195 56.27 458.195 70.22C458.195 84.44 449.105 93.44 436.235 93.44ZM423.905 70.22C423.905 79.94 428.675 86.15 436.235 86.15C443.795 86.15 448.655 79.94 448.655 70.22C448.655 60.32 443.705 54.29 436.235 54.29C428.855 54.29 423.905 60.32 423.905 70.22Z" fill="#ED8C50"/>
<path d="M382.765 93.44C365.485 93.44 355.045 80.48 355.045 60.23C355.045 40.7 366.205 27.47 383.215 27.47C397.345 27.47 406.795 36.47 407.965 50.24H397.345C396.175 41.24 391.135 35.93 382.855 35.93C371.965 35.93 365.395 45.38 365.395 60.23C365.395 75.08 372.235 84.98 382.765 84.98C391.315 84.98 396.535 79.58 397.885 70.4H408.145C406.705 84.71 397.435 93.44 382.765 93.44Z" fill="#ED8C50"/>
<path d="M327.391 93.44C314.341 93.44 305.701 85.16 305.701 70.04C305.701 56.45 314.701 46.91 327.031 46.91C340.171 46.91 347.641 56.09 347.641 70.22V72.2H315.151C315.331 80.66 320.371 86.15 327.481 86.15C332.521 86.15 336.931 83.72 337.831 78.14H347.281C346.381 86.42 339.541 93.44 327.391 93.44ZM315.241 65.54H337.831C337.831 58.7 333.691 54.02 326.941 54.02C320.371 54.02 315.871 58.97 315.241 65.54Z" fill="#ED8C50"/>
<path d="M278.182 93.44C271.522 93.44 266.572 90.29 264.052 85.97C264.232 87.41 264.232 88.58 264.232 89.93V92H254.872V29H264.232V50.51C264.232 51.86 264.142 53.12 264.052 54.38C266.842 50.15 271.522 46.91 278.182 46.91C289.792 46.91 298.162 56.27 298.162 70.22C298.162 84.44 289.972 93.44 278.182 93.44ZM263.692 70.22C263.692 79.67 268.822 86.15 276.112 86.15C283.492 86.15 288.532 79.67 288.532 70.22C288.532 60.86 283.492 54.29 276.112 54.29C268.822 54.29 263.692 60.5 263.692 70.22Z" fill="#ED8C50"/>
<path d="M217.079 92V84.44H227.159V55.91H218.879V48.35H236.519V84.44H245.249V92H217.079ZM226.079 41.15V30.26H236.789V41.15H226.079Z" fill="#ED8C50"/>
<path d="M177.15 92L156 29H166.98L181.29 74.45C182.1 77.24 182.91 79.85 183.81 82.73C184.53 79.94 185.34 77.24 186.24 74.45L200.55 29H211.17L189.66 92H177.15Z" fill="#ED8C50"/>
<defs>
<linearGradient id="paint0_linear_31_150" x1="17.4303" y1="104.65" x2="61.6803" y2="73.77" gradientUnits="userSpaceOnUse">
<stop stop-color="#EBAE76"/>
<stop offset="1" stop-color="#ED8C50"/>
</linearGradient>
<linearGradient id="paint1_linear_31_150" x1="10.9703" y1="61.89" x2="55.8402" y2="30.37" gradientUnits="userSpaceOnUse">
<stop stop-color="#EBAE76"/>
<stop offset="1" stop-color="#ED8C50"/>
</linearGradient>
<linearGradient id="paint2_linear_31_150" x1="9.14" y1="42.95" x2="59.98" y2="2.32995" gradientUnits="userSpaceOnUse">
<stop stop-color="#EBAE76"/>
<stop offset="1" stop-color="#ED8C50"/>
</linearGradient>
<linearGradient id="paint3_linear_31_150" x1="43.5" y1="19.0001" x2="104.5" y2="79.5001" gradientUnits="userSpaceOnUse">
<stop stop-color="#EBAE76"/>
<stop offset="1" stop-color="#ED8C50"/>
</linearGradient>
</defs>
</svg>
